<svg width="137" height="36" viewBox="0 0 137 36" fill="none" xmlns="http://www.w3.org/2000/svg" class="h-[32px] object-contain"><g clip-path="url(#clip0_1864_55146)"><path d="M136.468 6.23861C136.453 6.18772 136.438 6.13683 136.418 6.08594C124.346 6.09103 112.281 6.08594 100.215 6.09103C100.184 6.12665 100.164 6.16227 100.159 6.20807C100.159 15.5567 100.159 24.9002 100.153 34.2489C100.23 34.7475 100.505 35.2005 100.872 35.5415C100.887 35.5466 100.923 35.5515 100.938 35.5567C101.127 35.7551 101.397 35.8519 101.651 35.9435C101.84 35.9334 102.023 36.0147 102.212 35.9944H117.193C117.335 35.9893 117.483 36.0147 117.62 35.9588C117.626 35.9385 117.631 35.9028 117.636 35.8825C117.641 35.857 117.646 35.801 117.651 35.7706C117.972 33.9793 118.283 32.1828 118.624 30.3915L118.655 30.1624C117.269 30.1573 115.878 30.1624 114.492 30.1573C114.156 30.1471 113.809 30.1573 113.473 30.1165C112.897 30.091 112.316 30.1114 111.741 30.0555C111.027 30.0555 110.319 29.9893 109.606 29.9893C109.045 29.9333 108.479 29.9537 107.914 29.9282C107.547 29.8825 107.17 29.9028 106.798 29.8875C106.192 29.8214 105.575 29.8672 104.969 29.801C104.327 29.8062 103.685 29.7501 103.043 29.7348C103.048 29.7297 103.053 29.7094 103.053 29.7043C103.267 29.7094 103.476 29.6941 103.69 29.6891C104.164 29.6279 104.643 29.6687 105.117 29.6025C105.611 29.6025 106.1 29.5364 106.594 29.5364C107.032 29.4753 107.476 29.5109 107.914 29.4498C108.429 29.4498 108.933 29.3837 109.448 29.3786C109.871 29.3226 110.299 29.3531 110.722 29.2971C111.216 29.3022 111.705 29.2259 112.199 29.231C112.683 29.175 113.177 29.1902 113.661 29.1393C113.616 28.9511 113.58 28.7628 113.539 28.5744C113.504 28.4574 113.361 28.4828 113.269 28.4675C112.164 28.3097 111.063 28.1521 109.962 27.9994C110.034 27.9433 110.13 27.9687 110.212 27.9586C111.068 27.8924 111.919 27.8161 112.775 27.7551C112.969 27.7449 113.157 27.7093 113.351 27.7042C113.264 27.4396 113.213 27.1495 113.096 26.9052C111.267 26.6253 109.437 26.376 107.613 26.0757C108.087 25.9993 108.566 25.9638 109.04 25.9129L109.081 25.8975C110.594 25.7397 112.113 25.5616 113.626 25.4141C115.547 25.404 117.463 25.4089 119.384 25.4141C119.445 25.404 119.552 25.4343 119.562 25.3479C119.72 24.5235 119.873 23.6991 120.031 22.8746C120.25 21.7296 120.596 20.5998 121.131 19.5566C121.972 17.8772 123.302 16.4522 124.922 15.5057C126.436 14.6202 128.189 14.1927 129.931 14.1113C130.497 14.0604 131.067 14.0757 131.628 14.1469C131.995 14.2334 132.372 14.3352 132.662 14.5846C132.902 14.778 133.044 15.063 133.151 15.3479C133.386 16.0248 133.518 16.7271 133.63 17.4345C133.636 17.7195 133.686 18.0401 133.534 18.2996C133.391 18.5541 133.106 18.6762 132.836 18.7525C131.852 19.007 130.823 18.7678 129.839 19.007C129.029 19.18 128.275 19.6278 127.761 20.2742C127.154 21.0273 126.833 21.9636 126.655 22.9001C126.517 23.7347 126.344 24.5693 126.206 25.409C127.175 25.4142 128.148 25.4039 129.121 25.4142C129.508 25.4142 129.906 25.6279 130.064 25.9942C130.267 26.4625 130.222 26.9918 130.155 27.4854C130.074 28.0401 129.941 28.5897 129.692 29.0986C129.483 29.5311 129.136 29.9281 128.662 30.0808C128.418 30.1775 128.153 30.1572 127.893 30.1572C127.037 30.1572 126.181 30.1673 125.325 30.1572C125.187 30.7832 125.096 31.4243 124.973 32.0605C124.749 33.2971 124.53 34.5388 124.306 35.7806C124.301 35.8213 124.296 35.9078 124.296 35.9536C124.698 35.974 125.101 35.9536 125.503 35.9637C128.489 35.9637 131.48 35.9585 134.471 35.9637C134.792 35.974 135.118 35.8976 135.399 35.7398C135.567 35.6788 135.669 35.5312 135.816 35.4498C135.959 35.3684 136 35.2005 136.122 35.0936C136.255 34.8595 136.392 34.6153 136.402 34.3403C136.418 34.3403 136.458 34.3352 136.479 34.3302C136.463 24.9664 136.479 15.6025 136.468 6.23861Z" fill="url(#paint0_linear_1864_55146)" stroke="#FCD109" stroke-width="0.094"/><path d="M104.908 0.0823415C105.341 -0.0550634 105.794 0.0365399 106.238 0.00600542C114.559 0.0110945 122.879 0.00600542 131.2 0.00600542C131.694 -0.0143509 132.128 0.265548 132.586 0.408042C132.953 0.555625 133.335 0.672674 133.702 0.830435C133.778 0.86097 133.834 0.927128 133.89 0.983108C133.885 1.65487 133.89 2.33171 133.89 3.00856C133.896 3.18668 133.865 3.36988 133.926 3.54291C134.033 3.55818 134.089 3.6396 134.161 3.70576C134.497 3.85843 134.782 4.1078 135.088 4.31136C135.546 4.63706 136.036 4.92205 136.484 5.25793C136.504 5.39024 136.489 5.52765 136.448 5.64979C136.403 5.79228 136.433 5.94495 136.418 6.08745C124.347 6.09254 112.281 6.08745 100.215 6.09254C100.189 5.9246 100.235 5.75666 100.164 5.5989C100.154 5.46658 100.108 5.29355 100.235 5.20195C100.745 4.84571 101.285 4.5251 101.784 4.14851C102.095 3.95004 102.396 3.74647 102.696 3.54291C102.757 3.44113 102.737 3.3139 102.737 3.20194C102.737 2.46403 102.737 1.72611 102.742 0.988197C102.915 0.764277 103.216 0.738832 103.455 0.626872C103.94 0.443666 104.429 0.265548 104.908 0.0823415ZM104.938 0.168856C104.286 0.41822 103.629 0.657407 102.977 0.906771C102.89 0.922039 102.844 0.998375 102.798 1.06453C102.803 1.10525 102.808 1.17649 102.808 1.2172C102.803 1.82789 102.808 2.43858 102.803 3.04927C102.808 3.20194 102.788 3.35462 102.844 3.49202C102.778 3.55818 102.707 3.62434 102.625 3.67523C101.886 4.1536 101.173 4.67269 100.434 5.14597C100.307 5.22231 100.164 5.32409 100.205 5.49203C100.179 5.58363 100.225 5.65997 100.322 5.63452C101.922 5.62434 103.517 5.6447 105.117 5.61925C107.496 5.61925 109.871 5.62434 112.25 5.61925L112.286 5.60399C112.393 5.62943 112.5 5.61925 112.612 5.61925C116.923 5.61925 121.233 5.62434 125.549 5.61925C126.905 5.62434 128.265 5.61925 129.626 5.61925C131.868 5.61925 134.115 5.63961 136.357 5.62943C136.423 5.61416 136.443 5.56836 136.418 5.48694C136.413 5.40551 136.443 5.29355 136.357 5.24266C136 5.07472 135.694 4.81518 135.353 4.61162C135.231 4.50984 135.073 4.45386 134.981 4.31645C134.629 4.11798 134.303 3.8737 133.957 3.65487C133.89 3.61416 133.839 3.548 133.783 3.49202C133.814 3.38515 133.824 3.2681 133.824 3.15614C133.819 2.50983 133.824 1.86352 133.819 1.2172C133.834 1.11542 133.829 0.998375 133.737 0.932217C133.126 0.713387 132.52 0.479289 131.913 0.25537C131.725 0.163767 131.516 0.112876 131.312 0.0823415H105.269C105.157 0.0874306 105.05 0.14341 104.938 0.168856Z" fill="#F8F3B5" stroke="#F8F3B5" stroke-width="0.094"/><path d="M102.809 1.21484C103.257 1.40314 103.736 1.51001 104.19 1.69322C104.434 1.78991 104.511 2.05454 104.618 2.26828C104.511 2.37515 104.383 2.46167 104.256 2.54309C103.787 2.85861 103.308 3.16396 102.844 3.48966C102.788 3.35225 102.809 3.19958 102.804 3.04691C102.809 2.43622 102.804 1.82553 102.809 1.21484ZM132.439 1.69322C132.892 1.5151 133.366 1.39296 133.82 1.21484C133.825 1.86116 133.82 2.50747 133.825 3.15378C133.825 3.26574 133.815 3.38279 133.784 3.48966C133.387 3.21485 132.984 2.95531 132.587 2.68559C132.393 2.54309 132.179 2.43622 132.006 2.26319C132.113 2.04945 132.194 1.78991 132.439 1.69322Z" fill="#F7B402" stroke="#F7B402" stroke-width="0.094"/><path d="M110.585 1.9011C111.145 1.76878 111.772 2.26751 111.726 2.85275C111.731 3.42782 111.125 3.89601 110.569 3.7637C110.345 3.68736 110.131 3.57031 109.994 3.37184C109.815 3.10212 109.774 2.7408 109.917 2.44563C110.019 2.16064 110.294 1.96726 110.585 1.9011ZM125.122 2.22171C125.356 1.96217 125.728 1.81458 126.075 1.90619C126.335 1.98252 126.589 2.15046 126.702 2.40492C126.926 2.84258 126.753 3.43291 126.314 3.66192C125.927 3.87566 125.438 3.77388 125.142 3.46344C124.842 3.12248 124.821 2.56268 125.122 2.22171Z" fill="#BDA727" stroke="#BDA727" stroke-width="0.094"/><path d="M104.256 2.54552C104.384 2.4641 104.511 2.37758 104.618 2.27071L104.654 2.30634C104.689 2.57097 104.664 2.84069 104.674 3.10532C104.659 3.89922 104.689 4.6982 104.654 5.4921C103.171 5.4921 101.688 5.48192 100.205 5.4921C100.165 5.32416 100.307 5.22238 100.435 5.14604C101.173 4.67276 101.887 4.15367 102.626 3.6753C102.707 3.62441 102.779 3.55825 102.845 3.49209C103.308 3.16639 103.787 2.86105 104.256 2.54552ZM131.955 2.44374C131.955 2.37758 131.97 2.3216 132.006 2.26562C132.179 2.43865 132.393 2.54552 132.587 2.68802C132.984 2.95774 133.387 3.21728 133.784 3.49209C133.84 3.54807 133.891 3.61423 133.957 3.65494C134.304 3.87377 134.63 4.11805 134.981 4.31652C135.073 4.45393 135.231 4.50991 135.353 4.61169C135.695 4.81525 136.001 5.07479 136.357 5.24273C136.444 5.29362 136.413 5.40558 136.418 5.48701C134.936 5.4921 133.458 5.48192 131.975 5.4921C131.95 5.28853 131.965 5.08497 131.96 4.8865C131.96 4.07225 131.95 3.25799 131.955 2.44374Z" fill="#F7E62D" stroke="#F7E62D" stroke-width="0.094"/><path d="M136.419 5.48663C134.936 5.49172 133.458 5.48154 131.975 5.49172C131.95 5.28815 131.965 5.08459 131.96 4.88612C131.96 4.07186 131.95 3.25761 131.955 2.44336C131.955 2.3772 131.97 2.32122 132.006 2.26524C132.113 2.0515 132.194 1.79196 132.439 1.69527C132.892 1.51715 133.366 1.39501 133.82 1.21689C133.835 1.11511 133.83 0.998065 133.738 0.931907C133.127 0.713077 132.521 0.478979 131.914 0.25506C131.726 0.163456 131.517 0.112566 131.313 0.0820312H105.27C105.158 0.0871203 105.051 0.1431 104.939 0.168546C104.287 0.41791 103.629 0.657097 102.977 0.906461C102.891 0.921728 102.845 0.998065 102.799 1.06422C102.804 1.10494 102.809 1.17618 102.809 1.21689C103.257 1.40519 103.736 1.51206 104.19 1.69527C104.434 1.79196 104.511 2.05659 104.618 2.27033L104.653 2.30596C104.689 2.57059 104.664 2.84031 104.674 3.10494C104.659 3.89884 104.689 4.69782 104.653 5.49172C103.171 5.49172 101.688 5.48154 100.205 5.49172C100.18 5.58332 100.226 5.65966 100.322 5.63421C101.922 5.62403 103.517 5.64439 105.117 5.61894C107.497 5.61894 109.871 5.62403 112.251 5.61894L112.287 5.60368C112.394 5.62912 112.5 5.61894 112.613 5.61894C116.923 5.61894 121.234 5.62403 125.55 5.61894C126.905 5.62403 128.266 5.61894 129.626 5.61894C131.868 5.61894 134.115 5.6393 136.357 5.62912C136.424 5.61385 136.444 5.56805 136.419 5.48663ZM109.917 2.44845C110.019 2.16346 110.294 1.97008 110.585 1.90392C111.145 1.7716 111.772 2.27033 111.726 2.85558C111.731 3.43064 111.125 3.89884 110.569 3.76652C110.345 3.69018 110.131 3.57314 109.994 3.37466C109.815 3.10494 109.775 2.74362 109.917 2.44845ZM125.122 2.22453C125.356 1.96499 125.728 1.81741 126.075 1.90901C126.335 1.98534 126.589 2.15328 126.702 2.40774C126.926 2.8454 126.753 3.43573 126.314 3.66474C125.927 3.87848 125.438 3.7767 125.142 3.46626C124.842 3.1253 124.821 2.5655 125.122 2.22453Z" fill="url(#paint1_radial_1864_55146)" stroke="#FCD109" stroke-width="0.094"/><path d="M126.42 7.72012C126.491 7.73538 126.049 7.29538 126.135 7.27503C126.217 7.2852 126.526 7.04556 126.9 7.24108C127.273 7.4366 127.181 7.89416 127.138 8.06383C127.088 8.26577 126.959 8.39462 126.857 8.4964C126.801 8.54221 126.675 8.61345 126.599 8.60836C126.645 8.359 126.497 8.31829 126.487 8.06383L126.42 7.72012Z" fill="url(#paint2_linear_1864_55146)" stroke="#FCD109" stroke-width="0.094"/><path d="M110.132 7.99746C110.122 8.25191 109.974 8.29262 110.02 8.54199C109.943 8.54708 109.817 8.47583 109.761 8.43003C109.66 8.32825 109.531 8.19939 109.48 7.99746C109.438 7.82784 109.345 7.37028 109.719 7.17471C110.093 6.97913 110.402 7.21878 110.483 7.20865C110.57 7.22901 110.127 7.66901 110.199 7.65374L110.132 7.99746Z" fill="url(#paint3_linear_1864_55146)" stroke="#FCD109" stroke-width="0.094"/><path d="M125.753 10.9805C125.83 10.9141 125.881 10.9141 125.982 10.9141C125.371 12.2372 124.658 13.5604 123.585 14.5906C123.47 14.6928 123.349 14.7877 123.222 14.8744C123.1 14.9642 122.979 15.0483 122.86 15.1341C122.742 15.2153 122.626 15.2971 122.512 15.3823C122.222 15.5401 121.967 15.759 121.646 15.8556C121.06 16.1355 120.428 16.3238 119.792 16.4561C119.542 16.4969 119.287 16.5579 119.032 16.563C118.716 16.6546 118.38 16.5884 118.059 16.6088C117.881 16.6393 117.723 16.5375 117.55 16.5579C117.399 16.5367 117.249 16.5112 117.1 16.4815C116.949 16.4506 116.799 16.415 116.65 16.3747C114.314 15.6469 112.021 13.8657 111.353 11.4568C111.323 11.2946 111.308 11.1299 111.308 10.965C111.379 11.1074 111.453 11.2489 111.529 11.3891C112.48 13.4586 114.365 15.0871 116.592 15.5781C116.773 15.6605 116.969 15.6316 117.142 15.7029C117.3 15.7029 117.453 15.6978 117.606 15.7487C118.13 15.7588 118.655 15.7538 119.18 15.7538C119.251 15.7589 119.318 15.7232 119.389 15.708C120.264 15.6784 121.121 15.4401 121.919 15.0788C122.078 15.0065 122.236 14.9293 122.39 14.8479C122.525 14.7767 122.658 14.6997 122.786 14.6169C122.912 14.5357 123.035 14.4492 123.154 14.3576C124.097 13.6113 124.912 12.6443 125.466 11.5324C125.571 11.3323 125.668 11.147 125.753 10.9805Z" fill="#BDA727" stroke="#BDA727" stroke-width="0.094"/><path d="M124.922 15.5064C126.436 14.6209 128.189 14.1934 129.931 14.112C130.497 14.0611 131.068 14.0764 131.628 14.1476C131.995 14.2341 132.372 14.3359 132.662 14.5853C132.515 14.5955 132.372 14.5293 132.224 14.5089C131.806 14.4275 131.373 14.4581 130.95 14.4479C129.722 14.4479 128.484 14.5446 127.297 14.8804C126.675 15.0687 126.054 15.2876 125.488 15.6133C124.51 16.1527 123.628 16.8652 122.915 17.7202C121.641 19.1808 120.892 21.0331 120.53 22.9212C120.357 23.9339 120.158 24.9414 120 25.9593C119.746 25.9847 119.486 25.9695 119.231 25.9695C118.11 25.9644 116.989 25.9593 115.868 25.9492C115.628 25.9593 115.394 25.9034 115.155 25.9186C113.116 25.9287 111.078 25.9135 109.04 25.9135L109.081 25.8982C110.594 25.7403 112.113 25.5622 113.626 25.4147C115.547 25.4046 117.463 25.4095 119.384 25.4147C119.445 25.4046 119.552 25.435 119.562 25.3485C119.72 24.5241 119.873 23.6998 120.031 22.8752C120.25 21.7303 120.596 20.6005 121.131 19.5573C121.972 17.8779 123.302 16.4529 124.922 15.5064Z" fill="#0D69B3" stroke="#0D69B3" stroke-width="0.094"/><path d="M127.298 14.8818C128.485 14.5459 129.723 14.4492 130.951 14.4492C131.374 14.4594 131.807 14.4289 132.225 14.5103C132.373 14.5306 132.515 14.5968 132.663 14.5866C132.903 14.78 133.045 15.065 133.152 15.35C133.387 16.0268 133.519 16.7291 133.631 17.4365C133.637 17.7215 133.688 18.0421 133.535 18.3016C133.392 18.5561 133.107 18.6782 132.837 18.7546C131.853 19.009 130.824 18.7698 129.84 19.009C129.03 19.1821 128.276 19.6298 127.762 20.2762C127.155 21.0293 126.834 21.9656 126.656 22.9022C126.518 23.7368 126.345 24.5713 126.207 25.411C126.146 25.5994 126.111 25.8029 126.075 26.0015C127.038 26.0168 128.001 26.0015 128.964 26.0116C129.331 26.0015 129.698 26.0217 130.065 25.9963C130.268 26.4645 130.223 26.9938 130.156 27.4874C130.075 28.0421 129.942 28.5917 129.693 29.1006C129.484 29.5332 129.137 29.9302 128.663 30.0828C128.419 30.1795 128.154 30.1592 127.894 30.1592C127.038 30.1592 126.182 30.1693 125.326 30.1592C125.188 30.7852 125.097 31.4264 124.974 32.0625C124.75 33.2991 124.531 34.5408 124.307 35.7826C124.302 35.8234 124.297 35.9098 124.297 35.9556V35.9607C122.07 35.9607 119.848 35.9659 117.622 35.9607C117.627 35.9405 117.632 35.9047 117.637 35.8844C117.642 35.8589 117.647 35.803 117.652 35.7725C117.657 35.8132 117.662 35.8896 117.668 35.9252C117.805 35.9405 118.055 36.0116 118.091 35.8132C118.437 33.9404 118.758 32.0575 119.115 30.1846C118.977 30.1541 118.834 30.1541 118.692 30.1795C118.672 30.2508 118.651 30.322 118.626 30.3932L118.656 30.1642C117.27 30.159 115.879 30.1642 114.493 30.159C114.157 30.149 113.81 30.159 113.474 30.1184C112.898 30.0929 112.318 30.1133 111.742 30.0573C111.028 30.0573 110.32 29.9911 109.607 29.9911C109.046 29.9352 108.481 29.9555 107.915 29.93C107.548 29.8843 107.171 29.9046 106.799 29.8894C106.193 29.8232 105.576 29.8691 104.97 29.8028C104.328 29.808 103.686 29.7519 103.044 29.7367C103.049 29.7316 103.054 29.7112 103.054 29.7062C103.268 29.7112 103.477 29.6959 103.691 29.6908C104.165 29.6298 104.644 29.6705 105.118 29.6044C105.612 29.6044 106.101 29.5382 106.595 29.5382C107.034 29.4771 107.477 29.5127 107.915 29.4517C108.43 29.4517 108.934 29.3855 109.449 29.3805C109.872 29.3245 110.3 29.355 110.723 29.299C111.217 29.3041 111.706 29.2278 112.2 29.2328C112.684 29.1767 113.179 29.1921 113.663 29.1412C113.617 28.9529 113.581 28.7647 113.541 28.5763C113.505 28.4592 113.362 28.4846 113.27 28.4694C112.165 28.3115 111.064 28.1538 109.964 28.0012C110.035 27.9451 110.132 27.9705 110.213 27.9605C111.069 27.8942 111.92 27.8179 112.776 27.7569C112.97 27.7467 113.158 27.7111 113.352 27.706C113.265 27.4414 113.214 27.1513 113.097 26.907C111.268 26.6271 109.439 26.3778 107.615 26.0775C108.088 26.0012 108.567 25.9655 109.041 25.9146C111.079 25.9146 113.118 25.93 115.156 25.9197C115.395 25.9045 115.63 25.9605 115.869 25.9504C116.99 25.9605 118.111 25.9657 119.232 25.9706C119.487 25.9706 119.747 25.9859 120.002 25.9605C120.159 24.9427 120.358 23.935 120.531 22.9224C120.893 21.0342 121.642 19.1819 122.916 17.7214C123.629 16.8664 124.511 16.1539 125.489 15.6145C126.055 15.2889 126.676 15.0701 127.298 14.8818Z" fill="#107BD4" stroke="#107BD4" stroke-width="0.094"/><path d="M126.207 25.4102C127.175 25.4153 128.148 25.4051 129.121 25.4153C129.508 25.4153 129.906 25.629 130.064 25.9954C129.697 26.0208 129.33 26.0006 128.963 26.0107C128 26.0006 127.037 26.0159 126.074 26.0006C126.11 25.8021 126.145 25.5985 126.207 25.4102ZM118.691 30.1787C118.834 30.1532 118.976 30.1532 119.114 30.1838C118.757 32.0566 118.436 33.9395 118.09 35.8124C118.054 36.0107 117.804 35.9396 117.667 35.9243C117.661 35.8887 117.656 35.8124 117.651 35.7716C117.972 33.9803 118.283 32.1838 118.625 30.3925C118.65 30.3211 118.67 30.25 118.691 30.1787Z" fill="#0D69B3" stroke="#0D69B3" stroke-width="0.094"/><path d="M126.653 7.86292C126.612 7.78658 126.607 7.69498 126.607 7.60847L126.566 7.61355C126.505 7.38963 126.317 7.17589 126.072 7.16572C125.889 7.15045 125.659 7.15554 125.552 7.32857C125.348 7.60338 125.445 7.95452 125.435 8.26496C125.435 8.28531 125.44 8.32094 125.44 8.34129C125.44 8.54994 125.415 8.75351 125.379 8.95707C125.348 9.01814 125.333 9.0843 125.333 9.15554C125.247 9.63392 125.073 10.1072 124.839 10.5398C124.793 10.6008 124.757 10.667 124.742 10.7382C124.589 11.0029 124.406 11.2472 124.217 11.4914C124.187 11.5169 124.161 11.5474 124.136 11.5779C124.003 11.7408 123.861 11.8782 123.713 12.0207C123.677 12.041 123.652 12.0665 123.621 12.0868C123.448 12.2548 123.254 12.4126 123.045 12.5398C123.02 12.555 122.994 12.5754 122.964 12.5958C121.659 13.4558 120.075 13.812 118.531 13.8273C117.221 13.868 115.901 13.5881 114.719 13.0232C114.699 13.0131 114.648 12.9927 114.628 12.9825C114.429 12.8757 114.225 12.7841 114.042 12.6517C114.001 12.6314 113.96 12.6059 113.914 12.5856C113.726 12.4736 113.547 12.3515 113.379 12.209C113.323 12.1581 113.262 12.1174 113.201 12.0716C113.017 11.924 112.829 11.7662 112.671 11.5881C112.63 11.5423 112.589 11.5016 112.549 11.4609C111.993 10.8858 111.56 10.1835 111.331 9.42017C111.112 8.81458 111.143 8.153 111.117 7.51686C110.934 7.23696 110.546 7.0792 110.241 7.25223C110.113 7.34383 110.098 7.51177 110.001 7.62882C109.843 9.30822 110.562 10.9825 111.708 12.1937C111.708 12.2344 111.729 12.2599 111.764 12.2751C111.968 12.4634 112.167 12.6568 112.371 12.84C112.406 12.8757 112.447 12.9113 112.493 12.9418C112.697 13.1098 112.916 13.2624 113.13 13.4202C113.171 13.4507 113.211 13.4762 113.257 13.5016C113.537 13.6645 113.802 13.8578 114.103 13.9698C114.123 13.9851 114.159 14.0105 114.179 14.0207C115.148 14.4838 116.192 14.7993 117.262 14.9011C117.379 14.9011 117.497 14.9113 117.614 14.9367C118.123 14.9673 118.633 14.952 119.142 14.9418C120.717 14.8044 122.342 14.4227 123.657 13.4965L123.672 13.5169C123.713 13.4813 123.749 13.4507 123.789 13.4202C123.998 13.2675 124.202 13.1047 124.406 12.9367C124.452 12.9011 124.503 12.8604 124.549 12.8146C124.773 12.5703 125.033 12.3464 125.221 12.0665L125.252 12.0818C125.267 12.0563 125.293 12.0054 125.308 11.98C125.481 11.7459 125.639 11.5016 125.792 11.2573C125.802 11.2421 125.828 11.2166 125.838 11.2014L125.818 11.181C125.833 11.1606 125.869 11.1199 125.884 11.0996C126.164 10.5296 126.414 9.93417 126.5 9.30313C126.536 9.28786 126.556 9.25732 126.556 9.2217C126.562 9.01814 126.633 8.82475 126.613 8.62119C126.658 8.37183 126.663 8.11737 126.653 7.86292Z" fill="white" stroke="white" stroke-width="0.094"/><mask id="mask0_1864_55146" maskUnits="userSpaceOnUse" x="109" y="7" width="18" height="8" style="mask-type: luminance;"><path d="M126.653 7.86292C126.612 7.78658 126.607 7.69498 126.607 7.60847L126.566 7.61355C126.505 7.38963 126.317 7.17589 126.072 7.16572C125.889 7.15045 125.659 7.15554 125.552 7.32857C125.348 7.60338 125.445 7.95452 125.435 8.26496C125.435 8.28531 125.44 8.32094 125.44 8.34129C125.44 8.54994 125.415 8.75351 125.379 8.95707C125.348 9.01814 125.333 9.0843 125.333 9.15554C125.247 9.63392 125.073 10.1072 124.839 10.5398C124.793 10.6008 124.757 10.667 124.742 10.7382C124.589 11.0029 124.406 11.2472 124.217 11.4914C124.187 11.5169 124.161 11.5474 124.136 11.5779C124.003 11.7408 123.861 11.8782 123.713 12.0207C123.677 12.041 123.652 12.0665 123.621 12.0868C123.448 12.2548 123.254 12.4126 123.045 12.5398C123.02 12.555 122.994 12.5754 122.964 12.5958C121.659 13.4558 120.075 13.812 118.531 13.8273C117.221 13.868 115.901 13.5881 114.719 13.0232C114.699 13.0131 114.648 12.9927 114.628 12.9825C114.429 12.8757 114.225 12.7841 114.042 12.6517C114.001 12.6314 113.96 12.6059 113.914 12.5856C113.726 12.4736 113.547 12.3515 113.379 12.209C113.323 12.1581 113.262 12.1174 113.201 12.0716C113.017 11.924 112.829 11.7662 112.671 11.5881C112.63 11.5423 112.589 11.5016 112.549 11.4609C111.993 10.8858 111.56 10.1835 111.331 9.42017C111.112 8.81458 111.143 8.153 111.117 7.51686C110.934 7.23696 110.546 7.0792 110.241 7.25223C110.113 7.34383 110.098 7.51177 110.001 7.62882C109.843 9.30822 110.562 10.9825 111.708 12.1937C111.708 12.2344 111.729 12.2599 111.764 12.2751C111.968 12.4634 112.167 12.6568 112.371 12.84C112.406 12.8757 112.447 12.9113 112.493 12.9418C112.697 13.1098 112.916 13.2624 113.13 13.4202C113.171 13.4507 113.211 13.4762 113.257 13.5016C113.537 13.6645 113.802 13.8578 114.103 13.9698C114.123 13.9851 114.159 14.0105 114.179 14.0207C115.148 14.4838 116.192 14.7993 117.262 14.9011C117.379 14.9011 117.497 14.9113 117.614 14.9367C118.123 14.9673 118.633 14.952 119.142 14.9418C120.717 14.8044 122.342 14.4227 123.657 13.4965L123.672 13.5169C123.713 13.4813 123.749 13.4507 123.789 13.4202C123.998 13.2675 124.202 13.1047 124.406 12.9367C124.452 12.9011 124.503 12.8604 124.549 12.8146C124.773 12.5703 125.033 12.3464 125.221 12.0665L125.252 12.0818C125.267 12.0563 125.293 12.0054 125.308 11.98C125.481 11.7459 125.639 11.5016 125.792 11.2573C125.802 11.2421 125.828 11.2166 125.838 11.2014L125.818 11.181C125.833 11.1606 125.869 11.1199 125.884 11.0996C126.164 10.5296 126.414 9.93417 126.5 9.30313C126.536 9.28786 126.556 9.25732 126.556 9.2217C126.562 9.01814 126.633 8.82475 126.613 8.62119C126.658 8.37183 126.663 8.11737 126.653 7.86292Z" fill="white"/></mask><g mask="url(#mask0_1864_55146)"><path d="M109.61 7.69003C110.023 7.81944 110.972 7.49384 111.241 7.79181M109.848 8.9453C110.244 8.80774 111.093 8.48204 111.445 8.6739M110.256 10.2006C110.447 10.2625 110.824 9.92677 111.012 9.8284C111.29 9.68199 111.576 9.56978 111.886 9.52209M110.867 11.5238C111.065 11.2437 111.301 11.0111 111.586 10.8121C111.868 10.6149 112.642 10.0881 112.973 10.2685M111.445 12.4738C111.669 12.2959 111.76 11.9813 111.995 11.7944C112.28 11.5684 112.716 11.5278 113.007 11.3881M112.404 13.1777C112.471 12.6857 112.972 12.0919 113.449 12.1344M113.143 13.8648C113.395 13.8395 113.609 13.2756 113.779 13.0845C114.035 12.7983 114.3 12.7102 114.638 12.6094M114.604 14.4754C114.588 14.1194 114.956 13.0986 115.385 13.1523M115.691 14.8147C115.673 14.394 115.891 13.1284 116.404 13.0844M116.812 15.4933C116.714 14.9049 116.721 14.0537 117.185 13.6272M118.205 15.629C118.153 15.1385 117.665 14.147 118.205 13.763M119.699 15.2897C119.466 15.0199 119.331 13.9558 119.427 13.6612M121.126 15.0522C120.946 14.7263 120.724 14.4203 120.656 14.0421C120.615 13.816 120.686 13.494 120.65 13.3219M122.315 14.5433C121.925 14.2887 121.817 13.3529 121.941 12.9487M123.47 14.0344C123.193 13.4404 122.897 12.9799 122.892 12.3041M124.591 12.9487C124.16 12.6593 123.61 12.1332 123.674 11.5577M125.78 12.0327C125.125 11.8878 124.34 11.303 123.945 10.7774M126.323 10.9131C125.851 10.812 124.291 10.2041 124.387 9.58993M126.833 9.72565C126.175 9.48479 125.218 9.26825 124.693 8.80962M127.172 8.63995C126.758 8.67537 126.165 8.47502 125.743 8.40245C125.276 8.32189 124.842 8.16448 124.387 8.06316M126.765 7.58824C125.966 7.63603 125.216 7.3629 124.489 7.11328" stroke="#D1D1D1" stroke-width="2"/></g><path d="M24.5001 10.0394C25.2386 9.92809 26.0884 9.85853 26.7152 10.3177C27.1053 10.6098 27.2446 11.1385 27.2167 11.6117C27.2446 12.3908 26.8824 13.2257 26.186 13.6292C25.5729 13.9632 24.8346 13.9909 24.1519 13.9213C23.6922 13.8658 23.2325 13.6154 22.9956 13.1979C22.4661 11.9874 23.1209 10.2759 24.5001 10.0394ZM2.40488 10.916C2.44661 10.4985 2.8228 10.1229 3.25464 10.1368C6.47291 10.1368 9.67712 10.1507 12.8814 10.1368C13.2296 10.109 13.6058 10.262 13.7729 10.5681C14.0097 10.9856 13.8008 11.4447 13.7729 11.8761C13.6755 12.4604 13.7033 13.2397 13.0207 13.4622C10.6802 13.5318 8.33967 13.4622 5.99914 13.49C5.77627 14.9649 5.5673 16.4258 5.34433 17.8868C5.34433 17.9425 5.35834 18.0678 5.35834 18.1233C7.07188 18.1094 8.78542 18.1233 10.499 18.1094C10.9727 18.0816 11.4741 18.4853 11.4323 18.986C11.3906 19.5009 11.2791 20.0018 11.2095 20.5166C11.1537 20.8644 10.8751 21.1845 10.5129 21.254C8.60422 21.2958 6.66771 21.2123 4.75927 21.2958C4.45268 23.3968 4.09044 25.4977 3.76999 27.5988C3.72831 28.0163 3.39385 28.378 2.97592 28.3918C2.18191 28.4058 1.38772 28.4058 0.593712 28.3918C0.0782592 28.4058 -0.339721 27.8352 -0.200463 27.3482C0.649606 21.8663 1.52724 16.3982 2.40488 10.916ZM16.5591 10.1645C17.2837 10.109 18.0219 10.1507 18.7465 10.1368C19.1923 10.109 19.6381 10.4568 19.6798 10.916C19.6798 11.2777 19.5823 11.6395 19.5405 12.0012C18.9554 15.7302 18.3564 19.4593 17.7711 23.1882C17.6876 23.7865 17.5344 24.4265 17.7155 25.0388C17.9245 25.6509 18.8577 25.3866 19.0807 26.0266C19.22 26.5414 19.0667 27.084 19.0249 27.6128C18.9832 28.3085 18.1891 28.4615 17.6458 28.6148C16.4617 28.8373 15.0266 28.6703 14.1768 27.6962C13.5639 26.9868 13.522 25.9848 13.6475 25.0944C14.3858 20.3637 15.1242 15.6329 15.8766 10.8881C15.9184 10.5403 16.197 10.2203 16.5591 10.1645ZM44.2131 10.916C44.2548 10.4985 44.631 10.1368 45.0489 10.1368H47.1665C47.6959 10.1229 48.1279 10.6934 48.0024 11.1942C47.5149 14.2832 47.0134 17.3721 46.5258 20.4609C47.2641 20.3496 48.1001 20.2105 48.6155 19.6122C49.4791 18.6381 50.1898 17.5113 50.7191 16.3286C50.9002 15.8694 50.9977 15.2015 51.5968 15.118C52.3909 15.0902 53.1989 15.1041 53.993 15.118C54.5363 15.1041 54.9403 15.7163 54.7592 16.2172C54.5503 16.9548 54.202 17.6365 53.8398 18.2905C53.0317 19.5984 52.1402 20.8923 50.9699 21.922C51.4853 23.4664 52.1402 24.9692 52.7113 26.4858C52.8784 26.9867 53.2826 27.571 52.9064 28.0582C52.4744 28.6425 51.6664 28.3502 51.0674 28.4197C50.4404 28.3502 49.5349 28.6702 49.1866 27.9607C48.5318 26.444 47.9886 24.8857 47.3198 23.369C46.9297 23.3828 46.5257 23.3969 46.1356 23.3552C46.1079 23.4108 46.0521 23.522 46.0241 23.5778C45.8151 24.9692 45.5923 26.3606 45.3693 27.7519C45.2857 28.0859 45.021 28.3781 44.6589 28.406C43.9205 28.4338 43.1682 28.4197 42.4159 28.4197C42.0954 28.4197 41.8029 28.2111 41.6636 27.9328C41.5243 27.6544 41.6078 27.3346 41.6498 27.0284C42.5134 21.6576 43.3632 16.2867 44.2131 10.916ZM82.9285 12.4326C83.0261 12.0429 83.4021 11.7786 83.7923 11.7925C84.3496 11.8065 84.9208 11.7786 85.4919 11.8065C85.9517 11.8203 86.3139 12.2795 86.2581 12.7247C86.1745 13.5179 85.9794 14.311 85.9237 15.104C86.467 15.104 87.0242 15.0901 87.5676 15.104C88.0553 15.104 88.4593 15.605 88.3757 16.0779C88.306 16.5094 88.2084 16.9269 88.1388 17.358C88.0691 17.7199 87.7627 18.0121 87.4145 18.0677C86.7457 18.1094 86.091 18.0399 85.4362 18.1094C85.1575 19.9738 84.8511 21.8383 84.5585 23.7029C84.5166 24.1342 84.4888 24.6212 84.7396 24.9969C85.1158 25.4561 85.7704 25.289 86.2999 25.3448C86.7179 25.4699 86.9825 25.9292 86.9128 26.3467C86.8432 26.8196 86.8292 27.2928 86.7179 27.7519C86.5507 28.2666 85.9516 28.3641 85.4918 28.4893C84.2241 28.8233 82.7613 28.8233 81.6329 28.0858C80.5881 27.3761 80.4208 25.9987 80.5323 24.8299C80.8248 22.5758 81.2847 20.3357 81.5354 18.0677C81.1453 18.0815 80.6716 18.1372 80.3791 17.7893C80.0447 17.4415 80.2119 16.9267 80.2676 16.4952C80.3513 16.0361 80.3373 15.4378 80.8389 15.1873C81.2428 15.0342 81.7026 15.1457 82.1345 15.0899C82.3991 14.1996 82.6499 13.3092 82.9285 12.4326ZM75.0572 16.9407C75.9349 16.0641 76.9937 15.3406 78.2057 14.9789C78.7351 14.7423 79.4177 15.1876 79.4039 15.772C79.3064 16.5373 79.1252 17.2885 78.9998 18.0399C78.944 18.4156 78.6236 18.7356 78.2474 18.7774C76.8822 19.0138 75.698 19.8346 74.7507 20.8087C74.5139 21.1011 74.1656 21.3793 74.1238 21.7827C73.8313 23.7307 73.5248 25.6787 73.2183 27.6266C73.1766 28.044 72.8142 28.4476 72.3824 28.4198H70.2647C69.7772 28.4476 69.3454 27.9607 69.4011 27.4736C70.0141 23.6194 70.6271 19.7792 71.2261 15.9249C71.254 15.5354 71.5326 15.1597 71.9366 15.1179C72.4521 15.0901 72.9675 15.104 73.4969 15.104C73.9148 15.104 74.3049 15.4797 74.3049 15.9111C74.3049 16.5093 74.2492 17.1215 74.2352 17.7337C74.5697 17.5252 74.7786 17.1912 75.0572 16.9407ZM22.9816 15.1736C23.7339 15.0206 24.514 15.1459 25.2663 15.104C25.6982 15.0485 26.158 15.3267 26.2276 15.7581C26.2834 16.1476 26.1718 16.5233 26.13 16.8991C25.5589 20.475 24.9876 24.0509 24.4303 27.6268C24.3886 28.0304 24.0544 28.4338 23.6224 28.4198C22.8701 28.4198 22.1178 28.4338 21.3516 28.4061C20.8779 28.3503 20.5296 27.8078 20.6551 27.3485C21.2541 23.6336 21.8254 19.9323 22.4244 16.2172C22.4523 15.8137 22.5637 15.3406 22.9816 15.1736ZM68.0636 15.3546C65.9878 14.9649 63.8703 14.6866 61.7666 14.8953C59.8859 15.1319 57.9912 15.9807 56.835 17.5252C55.2328 19.5566 54.6895 22.2838 55.0516 24.8162C55.2468 26.0267 55.7761 27.2511 56.7653 28.0024C57.6847 28.7121 58.9246 28.8094 60.0392 28.6286C61.5994 28.3224 62.9228 27.3208 64.0096 26.2076C64.0652 26.6806 63.9538 27.1537 63.9817 27.6129C64.0096 28.0441 64.3997 28.4476 64.8315 28.4198H66.2526C66.6705 28.4198 67.0189 28.0304 67.0467 27.6267C67.6457 23.856 68.2448 20.0992 68.8299 16.3425C68.9134 15.8693 68.5374 15.4102 68.0636 15.3546ZM64.149 21.9081C63.5917 22.9516 62.8115 23.8978 61.9338 24.7047C61.4323 25.1221 60.7914 25.5535 60.1089 25.4144C59.4401 25.2753 59.1197 24.5796 58.9665 23.9813C58.6182 22.4229 58.9386 20.7253 59.8162 19.3758C60.2063 18.7495 60.8332 18.2765 61.5577 18.0817C62.5746 17.8312 63.6475 17.9564 64.6366 18.2347L64.6923 18.2905C64.5669 19.5009 64.3301 20.6975 64.149 21.9081ZM40.7163 19.821C40.7023 18.4295 40.3262 16.9686 39.3511 15.925C38.6824 15.1876 37.6793 14.8119 36.7041 14.8257C35.088 14.7702 33.5695 15.5633 32.3854 16.6207C32.1206 16.8295 31.9395 17.1356 31.647 17.3025C31.647 16.8432 31.6888 16.3841 31.6748 15.9111C31.6888 15.4797 31.2847 15.104 30.8668 15.104H29.4457C29 15.104 28.6377 15.4937 28.6099 15.925C27.7322 21.4906 26.8407 27.0562 25.9629 32.6219C25.8377 33.1367 26.2835 33.6655 26.8129 33.6515C27.593 33.6376 28.3871 33.7072 29.1533 33.5957C29.7663 33.4288 29.7523 32.7191 29.8499 32.2044C30.0727 30.9799 30.2261 29.7555 30.3653 28.5171C33.1098 29.0458 36.3001 28.6842 38.348 26.6109C40.0197 24.7883 40.7999 22.2698 40.7163 19.821ZM36.8155 21.2262C36.732 22.5063 36.2722 23.8004 35.3807 24.7325C34.2244 25.8319 32.4689 25.6787 31.0479 25.3031C31.0202 25.2613 30.9783 25.1778 30.9644 25.1362C31.1872 23.9256 31.2987 22.7012 31.5774 21.5046C32.3576 20.2246 33.3048 18.9304 34.6562 18.2209C35.1577 17.9844 35.8403 18.04 36.2026 18.4992C36.8155 19.2645 36.8713 20.2941 36.8155 21.2262Z" fill="#107BD4" stroke="#107BD4" stroke-width="0.101"/></g><defs><linearGradient id="paint0_linear_1864_55146" x1="118.316" y1="6.08589" x2="118.316" y2="35.9977" gradientUnits="userSpaceOnUse"><stop stop-color="#F7E830"/><stop offset="1" stop-color="#FDCB06"/></linearGradient><radialGradient id="paint1_radial_1864_55146" cx="0" cy="0" r="1" gradientUnits="userSpaceOnUse" gradientTransform="translate(118.161 19.7298) scale(24.3602 24.3298)"><stop offset="0.596" stop-color="#F29405"/><stop offset="0.736" stop-color="#F7D01E"/><stop offset="1" stop-color="#FDCB06"/></radialGradient><linearGradient id="paint2_linear_1864_55146" x1="126.65" y1="7.16368" x2="126.658" y2="8.58012" gradientUnits="userSpaceOnUse"><stop stop-color="#FADA1C"/><stop offset="1" stop-color="#FDCB06"/></linearGradient><linearGradient id="paint3_linear_1864_55146" x1="109.969" y1="7.0973" x2="109.96" y2="8.51374" gradientUnits="userSpaceOnUse"><stop stop-color="#FADA1C"/><stop offset="1" stop-color="#FDCB06"/></linearGradient><clipPath id="clip0_1864_55146"><rect width="136.725" height="36" fill="white" transform="translate(0.264648)"/></clipPath></defs></svg>