<svg width="209" height="36" viewBox="0 0 209 36" fill="none" xmlns="http://www.w3.org/2000/svg" class="h-[32px] object-contain"><g clip-path="url(#clip0_1864_55168)"><path d="M0.989258 0.679688H208.841V35.3188H0.989258V0.679688Z" fill="#004C8F"/><path d="M35.6328 0.679688H208.842V35.3188H35.6328V0.679688Z" fill="#004C8F"/><path d="M46.6475 26.1963V9.80657H52.0395V15.3384H57.0921V9.80657H62.4922V26.1963H57.0921V19.8372H52.0395V26.1963H46.6475ZM71.0251 13.879H72.4229C73.429 13.879 74.1652 13.9833 74.6357 14.1925C74.9839 14.3445 75.2669 14.5718 75.5152 14.9113C75.7418 15.2464 75.9249 15.6692 76.0596 16.2005C76.1819 16.7275 76.247 17.2848 76.247 17.8726C76.247 18.831 76.1167 19.6323 75.833 20.2816C75.5586 20.9302 75.1627 21.3964 74.6531 21.6838C74.1435 21.9762 73.3856 22.1152 72.3838 22.1152L71.0251 22.1239V13.879ZM73.1069 26.1963C74.3787 26.1963 75.4327 26.0921 76.2948 25.8612C77.162 25.639 77.8671 25.3429 78.4071 24.9897C78.9565 24.6277 79.4523 24.1406 79.9098 23.5347C80.3629 22.9078 80.7596 22.1195 81.068 21.1532C81.3865 20.1904 81.5385 19.1053 81.5385 17.8777C81.5385 16.0745 81.1947 14.5501 80.4983 13.2782C79.7925 12.0325 78.8341 11.1305 77.6101 10.5999C76.3911 10.0679 74.9361 9.80657 73.2459 9.80657H65.7503V26.1963H73.1069ZM84.0091 26.1963V9.80657H96.7961V13.8486H89.3309V16.4748H95.3028V20.4076H89.3309V26.1963H84.0091ZM114.854 16.0745H109.763C109.666 15.2595 109.37 14.6152 108.878 14.1534C108.382 13.7002 107.759 13.478 106.993 13.478C106.038 13.478 105.263 13.8486 104.667 14.5805C104.066 15.321 103.765 16.5183 103.765 18.165C103.765 19.3145 103.9 20.1774 104.148 20.7652C104.405 21.3703 104.767 21.8061 105.215 22.0978C105.677 22.3895 106.239 22.5249 106.931 22.5249C107.759 22.5249 108.421 22.315 108.904 21.8365C109.401 21.3877 109.688 20.7174 109.784 19.8198H114.967C114.854 20.839 114.649 21.6924 114.353 22.3895C114.07 23.0823 113.564 23.7707 112.881 24.4627C112.18 25.1698 111.336 25.7207 110.407 26.0791C109.453 26.4577 108.351 26.6364 107.088 26.6364C105.843 26.6364 104.68 26.4577 103.63 26.0921C102.568 25.7171 101.67 25.1858 100.955 24.5191C100.228 23.8271 99.6619 23.0519 99.2573 22.176C98.6731 20.944 98.3988 19.5889 98.3988 18.0775C98.3988 16.8143 98.6036 15.6163 99.0177 14.5197C99.431 13.4302 100.002 12.503 100.729 11.7538C101.461 11.0082 102.258 10.4508 103.147 10.0766C104.27 9.59738 105.507 9.36719 106.879 9.36719C108.073 9.36719 109.179 9.54092 110.224 9.89344C111.265 10.2467 112.119 10.7606 112.785 11.4447C113.455 12.1198 113.984 12.9221 114.34 13.8045C114.601 14.4277 114.767 15.1813 114.854 16.0745ZM132.124 13.4961C132.886 13.4961 133.378 13.5309 133.622 13.6004C133.922 13.6858 134.188 13.8624 134.384 14.1056C134.575 14.3496 134.676 14.6326 134.676 14.9598C134.676 15.3774 134.51 15.7213 134.192 15.9826C133.852 16.2577 133.273 16.3836 132.441 16.3836H130.412V13.4954L132.124 13.4961ZM133.477 26.1963C134.754 26.1963 135.651 26.1355 136.178 26.0226C136.729 25.8882 137.265 25.6983 137.777 25.4558C138.308 25.1771 138.718 24.9158 138.987 24.6284C139.406 24.2405 139.715 23.7707 139.941 23.2039C140.168 22.6335 140.282 21.9892 140.282 21.2965C140.282 20.3077 140.037 19.4933 139.541 18.831C139.045 18.165 138.378 17.7249 137.537 17.4853C138.961 16.5877 139.671 15.4296 139.671 14.018C139.671 12.5594 139.045 11.4447 137.803 10.6868C136.845 10.1026 135.351 9.80657 133.325 9.80657H125.194V26.1963H133.477ZM132.612 19.3319C133.679 19.3319 134.371 19.4622 134.719 19.7373C135.042 20.0029 135.216 20.3685 135.216 20.8607C135.216 21.3573 135.042 21.7496 134.689 22.024C134.353 22.3157 133.652 22.4373 132.612 22.4373H130.412V19.3319H132.612ZM152.124 20.687H148.696L150.386 14.7238L152.124 20.687ZM147.085 26.1963L147.707 24.045H153.073L153.701 26.1963H159.062L153.182 9.80657H147.707L141.823 26.1963H147.085ZM161.327 26.1963V9.80657H166.349L172.015 18.5827V9.80657H177.181V26.1963H172.05L166.505 17.6381V26.1963H161.327ZM180.774 26.1963V9.80657H185.997V15.2117L190.87 9.80657H197.203L191.197 15.9783L197.826 26.1963H191.371L187.429 19.6671L185.996 21.083V26.1963H180.774Z" fill="white"/><path d="M0.989258 0.679688H35.6284V35.3188H0.989258V0.679688Z" fill="#ED232A"/><path d="M7.05176 6.74207H29.5698V29.2601H7.05176V6.74207Z" fill="white"/><path d="M16.5771 0.679688H20.0401V35.3188H16.5771V0.679688Z" fill="white"/><path d="M0.989258 16.2734H35.6284V19.7364H0.989258V16.2734Z" fill="white"/><path d="M13.1152 12.8047H23.507V23.1972H13.1152V12.8047Z" fill="#004C8F"/></g><defs><clipPath id="clip0_1864_55168"><rect width="207.852" height="36" fill="white" transform="translate(0.989258)"/></clipPath></defs></svg>