<svg xmlns="http://www.w3.org/2000/svg" viewBox="0 0 800 200" class="h-[32px] object-contain"><path d="M120.9 106.69H92.61v12.73c-.28 2.66-.04 5.36.72 7.92.03 1.16.48 2.26 1.27 3.11 1.59.56 3.28.75 4.95.57h1.84v1.84H76.62v-1.85h1.84c1.84 0 3.68 0 4.24-.57 1.27-.72 1.84-1.27 1.84-2.4.6-2.79.79-5.65.57-8.48V93.54c.23-2.65.04-5.33-.57-7.92 0-1.13-.57-2.4-1.27-2.4-1.79-.53-3.66-.72-5.51-.57h-1.27v-1.82h24.61v1.84h-1.28c-2.52 0-4.38 0-4.95.57-1.27 0-1.84 1.27-1.84 2.4-.72.57-.72 3.68-.72 7.92v10.32h28.29V93.56c0-4.25-.57-6.65-.57-7.92 0-1.13-.57-2.4-1.84-2.4-.57-.57-2.4-.57-4.95-.57h-1.27v-1.84h24.04v1.84h-.72c-1.86-.15-3.73.04-5.51.57-.57 0-1.27 1.27-1.27 2.4a22.97 22.97 0 0 0-.57 7.92v26.02c-.24 2.65-.04 5.32.57 7.92.03 1.16.48 2.27 1.27 3.11 1.59.55 3.28.74 4.95.57h1.28v1.83h-24.02v-1.99h1.84c1.84 0 3.68 0 4.24-.57 1.27-.72 1.84-1.27 1.84-2.4 0-1.27.57-4.25.57-8.48v-12.88h.43ZM179.44 132.15h.57c5.52.23 10.8-2.25 14.14-6.65a27.678 27.678 0 0 0 5.51-18.81c.43-6.72-1.53-13.38-5.51-18.81-3.54-4.55-9.1-7.04-14.85-6.65V79.4c7.67-.34 15.17 2.29 20.95 7.35a25.427 25.427 0 0 1 8.49 19.94c0 7.56-3.06 14.8-8.49 20.08a29.412 29.412 0 0 1-20.95 7.22v-1.83h.14Zm-19.66-25.46c0 8.49 1.27 14.57 4.95 18.81 3.61 4.45 9.13 6.91 14.85 6.65v1.83a30.37 30.37 0 0 1-20.95-7.22 27.478 27.478 0 0 1-8.04-20.65c-.1-7.29 2.82-14.3 8.06-19.38a31.49 31.49 0 0 1 20.94-7.35v1.84c-5.7-.14-11.16 2.3-14.85 6.65-3.68 4.38-4.95 10.47-4.95 18.81M247.89 106.12c.57 0 1.27-.72 1.84-.72a9.54 9.54 0 0 0 4.95-3.68c1.22-2.26 1.85-4.79 1.84-7.35.23-3.49-.88-6.93-3.11-9.62a7.704 7.704 0 0 0-5.52-2.41v-2.25c2.32.01 4.62.44 6.79 1.27 2.83.63 5.39 2.11 7.36 4.25 1.91 2.42 3 5.4 3.11 8.48.08 2.75-.55 5.49-1.84 7.92a20.802 20.802 0 0 1-6.22 4.8c-2.98.88-6.08 1.31-9.19 1.28v-1.98Zm-9.33 0h9.33v1.84c-.98.4-2.04.6-3.11.57h-6.22v10.89c-.28 2.66-.03 5.36.72 7.92 0 1.16.46 2.27 1.27 3.11 1.59.55 3.28.74 4.95.57h1.84v1.84h-24.6v-1.84h1.83c1.84 0 3.68 0 4.25-.57 1.27-.72 1.84-1.27 1.84-2.4s.57-4.24.57-8.48V93.54c0-4.24-.57-6.65-.57-7.92 0-1.13-.72-2.4-1.84-2.4-.57-.57-2.4-.57-4.95-.57h-1.29v-1.82l6.79-.57h18.52v2.4c-1.6-.47-3.28-.66-4.95-.57h-4.25v24.04h-.14ZM302.07 106.12c.72 0 1.27-.72 2.53-.72 1.85-.67 3.4-1.98 4.38-3.68 1.16-2.28 1.79-4.8 1.84-7.35 0-4.25-.57-7.92-3.11-9.62a7.704 7.704 0 0 0-5.52-2.41v-2.25c2.32.01 4.62.44 6.79 1.27 2.83.63 5.39 2.11 7.36 4.25 1.91 2.42 3 5.4 3.11 8.48.08 2.75-.55 5.49-1.84 7.92a14.264 14.264 0 0 1-5.51 4.8c-3.23.84-6.56 1.26-9.9 1.28v-1.98h-.12Zm-9.2 0h9.19v1.84c-.97.46-2.04.66-3.11.57h-6.22v10.89c-.28 2.66-.04 5.36.72 7.92a5.11 5.11 0 0 0 1.13 3.11c1.59.55 3.28.74 4.95.57h1.83v1.84h-24.62v-1.84h1.84c1.48.18 2.99-.01 4.38-.57 1.27-.72 1.84-1.27 1.84-2.4.6-2.79.8-5.64.57-8.48V93.54c.24-2.65.04-5.33-.57-7.92 0-1.13-.57-2.4-1.27-2.4-1.79-.53-3.66-.72-5.52-.57h-1.27v-1.82l6.79-.57h18.52v2.4a14.8 14.8 0 0 0-4.95-.57h-4.38v24.04h.14ZM374.76 116.44h1.84l-1.27 16.41h-44.41v-1.84h1.27c1.86.21 3.74.02 5.51-.57.76-.87 1.2-1.96 1.27-3.11V85.47c0-1.13-.57-1.84-1.84-2.4-.57-.57-2.4-.57-4.81-.57v-1.84h38.18l1.27 12.73h-1.84c-.39-2.85-1.46-5.56-3.11-7.92-1.27-1.13-2.4-2.4-4.24-2.4-2.65-.54-5.36-.73-8.06-.57h-7.36v21.78h5.66c1.87.19 3.75-.06 5.51-.72 1.27-.57 1.84-1.13 1.84-1.83.54-1.74.73-3.57.57-5.37h1.84v18.1h-1.84c.19-2.04 0-4.1-.57-6.08a2.7 2.7 0 0 0-2.41-1.84c-.57-.57-2.52-.57-4.24-.57h-6.22v12.74c-.27 3.68.17 7.39 1.3 10.9.57 1.27 3.11 1.27 6.79 1.27h3.68a22.8 22.8 0 0 0 6.79-.57 17.99 17.99 0 0 0 5.51-4.24c1.61-3.02 2.75-6.26 3.39-9.62M415.49 105.55c.78-.4 1.65-.6 2.52-.57a9.46 9.46 0 0 0 3.68-1.84c.99-1.07 1.84-2.25 2.52-3.53.47-1.8.66-3.66.57-5.52.24-3.22-.65-6.43-2.53-9.05a14.428 14.428 0 0 0-6.79-3.11V80.1c2.51-.04 5 .39 7.35 1.27 2.83.63 5.39 2.11 7.36 4.25 2.15 2.05 3.28 4.95 3.11 7.92-.03 3.21-1.36 6.27-3.68 8.49a18.994 18.994 0 0 1-11.03 4.8c4.01 3.32 7.53 7.17 10.47 11.46 2.87 3.83 6.19 7.3 9.9 10.33 2.28 1.79 5.17 2.65 8.06 2.4v1.83h-14.14c-3.11-1.27-6.79-6.08-11.74-13.29-1.7-2.33-3.54-4.55-5.51-6.65v-7.35h-.12Zm-9.19.58c2.4 0 4.24-.72 6.22-.72h3.11v6.79l-3.68-3.68c-.57-.57-1.84-.57-3.11-.57h-2.41v11.45c-.23 2.65-.04 5.33.57 7.92 0 1.16.46 2.28 1.27 3.11 1.59.56 3.28.75 4.95.57h2.4v1.83h-25.44V131h1.83c1.84 0 3.68 0 4.25-.57 1.27-.72 1.84-1.27 1.84-2.4.6-2.78.8-5.64.57-8.48V93.53c.23-2.66.04-5.33-.57-7.92 0-1.13-.57-2.4-1.27-2.4-1.79-.53-3.66-.72-5.51-.57h-.57V80.8l7.35-.57c4.95 0 9.19-.57 12.3-.57 1.84 0 3.68.57 4.96.57v1.83h-9.05v24.07ZM456.79 132.85v-16.97h1.84c1.84 11.03 7.35 16.41 15.98 16.41 3.15 0 6.21-1.09 8.63-3.12 1.76-2.01 2.8-4.55 2.97-7.22-.14-2.51-1.2-4.87-2.97-6.65a30.45 30.45 0 0 0-9.9-5.37c-3.22-1.29-6.3-2.9-9.19-4.81a12.593 12.593 0 0 1-5.51-5.37c-1.26-1.98-1.91-4.3-1.84-6.65-.32-3.76 1.28-7.42 4.25-9.75 2.65-2.53 6.23-3.86 9.9-3.68 2.14.04 4.24.47 6.22 1.27 2.51.64 4.71 2.14 6.22 4.24a14.63 14.63 0 0 0 2.41-4.24h1.27v13.29h-1.27a24.534 24.534 0 0 0-5.51-9.05 12.288 12.288 0 0 0-8.63-3.68c-2.68-.25-5.35.61-7.36 2.4a9.504 9.504 0 0 0-1.83 5.51c-.14 2.45.73 4.85 2.4 6.65 3.08 2.09 6.34 3.89 9.75 5.38 4.95 1.84 7.91 3.68 10.47 4.81 2.09 1.32 3.8 3.18 4.95 5.37 1.33 2.16 1.98 4.69 1.84 7.23.15 4.06-1.39 8-4.24 10.89-3.36 3-7.8 4.53-12.31 4.24-5.69.12-11.14-2.32-14.85-6.64a12.647 12.647 0 0 0-1.84 5.37h-1.84v.14ZM605.86 92.82h-1.84V80.65h52.33v12.17h-1.7c-.35-2.58-1.16-5.07-2.4-7.35-1.27-1.13-1.84-2.4-3.11-2.97h-14.85v44.84a3.4 3.4 0 0 0 1.84 3.11c.57.57 2.4.57 4.95.57h2.4v1.84h-26.46v-1.84h2.4c2.62 1.09 5.63-.16 6.72-2.79.02-.06.04-.12.07-.18V82.64H611.5c-1.3.68-2.37 1.71-3.11 2.97a19.525 19.525 0 0 0-2.53 7.22M696.51 132.15h.72c5.52.23 10.8-2.25 14.14-6.65a27.738 27.738 0 0 0 5.52-18.81c.43-6.72-1.53-13.38-5.52-18.81-3.54-4.55-9.1-7.04-14.85-6.65V79.4c7.67-.34 15.17 2.29 20.95 7.35 5.7 5.03 8.87 12.34 8.63 19.94 0 7.59-3.11 14.86-8.63 20.08a29.412 29.412 0 0 1-20.95 7.22v-1.84Zm-19.66-25.46c-.4 6.64 1.33 13.24 4.95 18.81 3.61 4.45 9.13 6.91 14.85 6.65v1.83a30.33 30.33 0 0 1-20.94-7.22 27.524 27.524 0 0 1-8.05-20.65 24.95 24.95 0 0 1 8.63-19.38 28.992 28.992 0 0 1 20.36-7.35v1.84c-5.7-.14-11.16 2.3-14.85 6.65a30.688 30.688 0 0 0-4.95 18.81M766.1 106.12c1.27 0 1.84-.72 2.4-.72a9.54 9.54 0 0 0 4.95-3.68c1.22-2.26 1.85-4.79 1.84-7.35.23-3.49-.89-6.93-3.12-9.62-1.76-1.45-3.94-2.3-6.21-2.41v-2.25c2.5-.04 5 .39 7.35 1.27 2.83.63 5.39 2.11 7.35 4.25 1.7 2.49 2.55 5.47 2.41 8.48.08 2.75-.55 5.49-1.84 7.92a14.123 14.123 0 0 1-5.51 4.8 33.17 33.17 0 0 1-9.9 1.28v-1.98h.28Zm-8.63 0h8.63v1.84c-.95.51-2.04.71-3.12.57h-5.65v18.81c.57 1.27.57 2.4 1.84 3.11 1.58.6 3.28.79 4.95.57h1.84v1.84h-24.75v-1.84h1.27c1.63.18 3.27 0 4.81-.57.71-.72 1.33-1.53 1.84-2.4V85.62c-.72-1.13-1.27-2.4-1.84-2.4-.57-.57-2.41-.57-4.81-.57h-1.27v-1.82l6.79-.57h17.82v2.4c-1.6-.5-3.28-.69-4.95-.57h-3.68v24.04h.28ZM15.53 132.14V109.8h2.4c2.53 14.56 9.9 21.78 20.95 21.78 4.23.27 8.42-1.04 11.74-3.68 2.82-2.45 4.42-6.02 4.39-9.75.35-3.71-.77-7.42-3.11-10.32a62.295 62.295 0 0 0-13.58-7.22c-4.41-1.76-8.71-3.79-12.87-6.09-3.18-1.3-5.83-3.64-7.5-6.65a18.162 18.162 0 0 1-2.41-9.05c-.1-4.68 1.93-9.16 5.51-12.17 3.42-3.44 8.17-5.2 13-4.81 2.94-.26 5.89.18 8.63 1.27a24.94 24.94 0 0 1 8.63 6.08c1.37-1.77 2.24-3.86 2.53-6.08h1.84v18.1h-1.84c-1-4.8-3.35-9.22-6.79-12.73a17.937 17.937 0 0 0-12.3-4.81 11.73 11.73 0 0 0-9.19 3.68 10.117 10.117 0 0 0-3.11 7.92c0 3.38 1.31 6.63 3.68 9.05 4.15 3.05 8.72 5.49 13.58 7.22 6.22 2.97 10.47 4.81 13.58 6.65 2.66 1.76 4.97 4.02 6.79 6.65 1.75 2.69 2.63 5.85 2.53 9.05a17.74 17.74 0 0 1-6.22 14.57c-10.56 9.07-26.49 7.86-35.56-2.71l-.23-.26a10.496 10.496 0 0 0-2.52 6.65h-2.53ZM545.47 132.14V109.8H548c2.4 14.56 9.9 21.78 20.95 21.78 4.23.27 8.42-1.04 11.74-3.68 2.87-2.37 4.27-6.08 3.68-9.75 0-3.68 0-7.92-2.53-10.32a62.295 62.295 0 0 0-13.58-7.22c-5.51-2.41-9.75-4.25-13-6.09-3.14-1.3-5.74-3.65-7.35-6.65a16.994 16.994 0 0 1-2.53-9.05c-.11-4.71 1.99-9.21 5.66-12.17 3.63-3.47 8.57-5.23 13.58-4.81 2.75-.2 5.51.23 8.06 1.27a24.94 24.94 0 0 1 8.63 6.08 12.44 12.44 0 0 0 2.53-6.08h1.27v18.11h-1.27c-1-4.81-3.35-9.23-6.79-12.73-3.18-3-7.36-4.72-11.74-4.81-3.68-.27-7.29 1.07-9.9 3.68a10.151 10.151 0 0 0-3.11 7.92c.05 3.37 1.36 6.6 3.68 9.05 4.17 3.02 8.74 5.45 13.58 7.22 6.22 2.97 10.47 4.81 13.58 6.65 2.39 1.91 4.48 4.15 6.22 6.65a15.69 15.69 0 0 1 2.52 9.05c.33 5.57-1.97 10.96-6.22 14.57a20.819 20.819 0 0 1-15.42 6.08c-7.64.19-14.94-3.14-19.8-9.05-1.31 2-2.14 4.28-2.4 6.65h-2.56Z"/></svg>