<svg xmlns="http://www.w3.org/2000/svg" viewBox="0 0 800 200" class="h-[32px] object-contain"><defs><linearGradient id="a" x1="-444.54" x2="-443.12" y1="842.16" y2="842.16" gradientTransform="matrix(47.04 0 0 -49.41 21011.76 41711.19)" gradientUnits="userSpaceOnUse"><stop offset="0" stop-color="#780096"/><stop offset="1" stop-color="#ff0082"/></linearGradient></defs><path d="M202.8 93h-14.2V81.6H229V93h-14.2v48h-12V93zM250.3 115.5c0-5.9-1.8-9.2-6.2-9.2s-6.6 3.5-7 9.2h13.2Zm-25.1 3.4c0-13.5 6.9-22.1 18.6-22.1s18.7 9.6 17.2 26.5h-23.7c1 6.1 4.7 8.5 10.7 8.5 3.6.1 7.1-.6 10.4-1.8v8.7c-3.8 1.6-7.9 2.3-12 2.2-13.7 0-21.2-8.3-21.2-22ZM266.8 139.5h11.8V75.9h-11.8v63.6zM308.9 115.3c0-5.9-1.8-9.2-6.2-9.2s-6.6 3.5-7 9.2h13.2Zm-25.1 3.3c0-13.5 6.9-22.1 18.7-22.1s18.7 9.6 17.2 26.5H296c1 6.1 4.7 8.5 10.7 8.5 3.5.1 7.1-.6 10.4-1.8v8.7c-3.8 1.6-7.9 2.3-12 2.2-13.7.1-21.3-8.3-21.3-22ZM336.8 126.2c1.4 2.6 3.6 4.3 6.4 4.3 5 0 7-4.3 7-11.9s-1.9-11.9-7-11.9c-2.8 0-5 1.7-6.4 4.3v15.2Zm9.9 14.5c-3.8.1-7.4-1.5-9.9-4.3v22.3H325V97.6h10.6v4.3c2.5-3.5 6.5-5.5 10.8-5.4 11.4 0 15.5 10.3 15.5 22.1 0 12.9-4.7 22.1-15.2 22.1ZM390.5 115.3c0-5.9-1.8-9.2-6.2-9.2s-6.6 3.5-7 9.2h13.2Zm-25 3.3c0-13.5 6.9-22.1 18.7-22.1s18.6 9.6 17.2 26.5h-23.7c1 6.1 4.7 8.5 10.7 8.5 3.5.1 7.1-.6 10.4-1.8v8.7c-3.8 1.6-7.9 2.3-12 2.2-13.8.1-21.3-8.3-21.3-22ZM406.1 97.7h10.6v6.4c2.5-5.3 7.3-7.8 13.6-7.2v11.9c-5.6-.7-10.1 1.3-12.4 7.2v23.7h-11.8v-42ZM440.1 107.8h-5.5V97.7h5.5v-5.5c0-10.9 7-14.8 14.5-14.8 2.6-.1 5.2.4 7.6 1.4v9.6c-1.5-.6-3.1-.9-4.8-.9-3.3 0-5.6 1.6-5.6 5.1v5.1h8.5v10.1h-8.4v31.8h-11.8v-31.8ZM473.8 118.6c0 7.7 2 11.9 7.1 11.9s7-4.2 7-11.9-2-12-7-12-7.1 4.3-7.1 12m26.1 0c0 13.8-6.8 22.1-18.9 22.1s-19-8.3-19-22.1 6.8-22.1 19-22.1 18.9 8.2 18.9 22.1M504.1 97.7h10.6v6.4c2.5-5.3 7.3-7.8 13.6-7.2v11.9c-5.6-.7-10.1 1.3-12.4 7.2v23.7h-11.8v-42ZM588 110v29.6h-11.7v-27.2c0-3.4-1.6-5.1-4.4-5.1-2.5 0-4.4 1.4-5.9 3.8v28.4h-11.5v-27.1c0-3.4-1.7-5.1-4.4-5.1-2.4 0-4.4 1.4-5.9 3.9v28.3h-11.6V97.6h10.5v3.9c2.5-3.3 6.5-5.2 10.6-5.1 4.6 0 8 1.9 10 5.1 2.8-3.4 7-5.2 11.4-5.1 8.7.1 12.8 6.1 12.9 13.6M615.8 130.3v-8c-1.4-.3-2.8-.5-4.2-.5-4.3 0-7.2 1.4-7.2 5.6 0 3.8 2.3 5.4 5.1 5.4 2.4 0 4.6-.8 6.3-2.5m15.7.9v8.2c-1.8.5-3.7.8-5.6.8-3.3 0-6.2-1-8-3.2-3.2 2.5-7.2 3.9-11.3 3.8-7.2 0-13.5-4.2-13.5-13s6.6-13.4 16-13.4c2.3 0 4.6.3 6.8.8v-2.3c0-3.4-1.6-6.4-7.4-6.4-4.4 0-8.7.9-12.8 2.6v-10c4.5-1.6 9.2-2.4 13.9-2.4 11.7 0 17.8 5.1 17.8 17.1v14.9c0 2.1 1.1 2.8 2.7 2.8.5-.1.9-.2 1.4-.3M635.9 97.7h10.5v3.9c2.8-3.4 7-5.2 11.4-5.1 6.7 0 12.8 4.6 12.8 13.3v29.7h-11.8v-27.1c0-3.6-1.8-5.1-4.8-5.1-2.7.1-5.2 1.7-6.3 4.2v28h-11.8V97.7ZM675.5 119c0-14.4 8.5-22.4 20.1-22.4 3.2-.1 6.4.5 9.2 1.9v9.9c-2.3-1.2-4.8-1.8-7.4-1.7-6.2 0-10 4.5-10 12s3.4 11.9 9.5 11.9c2.9 0 5.7-.6 8.4-1.7V139c-3.2 1.3-6.7 2-10.2 1.8-11.4-.2-19.5-7.9-19.6-21.8M733.5 115.3c0-5.9-1.8-9.2-6.2-9.2s-6.6 3.5-7 9.2h13.2Zm-25.1 3.3c0-13.5 6.9-22.1 18.7-22.1s18.7 9.6 17.2 26.5h-23.7c1 6.1 4.7 8.5 10.7 8.5 3.5.1 7.1-.6 10.4-1.8v8.7c-3.8 1.6-7.9 2.3-12 2.2-13.7.1-21.3-8.3-21.3-22Z"/><path d="M127.9 41.3H59.6c-2.3 0-4.1 1.8-4.1 4.1v20.2c-.2 1.3.3 2.5 1.1 3.5l23.6 23.4c.2.2.5.3.7.1.1-.1.2-.2.2-.4V68.3c0-.5-.4-.9-.9-.9H61.6c-1.2 0-2.2-1-2.2-2.2V47.3c0-1.2 1-2.2 2.2-2.2h62.5c1.2 0 2.2 1 2.2 2.2v17.8c0 1.2-1 2.2-2.2 2.2h-18.7c-.5 0-.9.4-.9.9v69.2c0 1.2-1 2.2-2.2 2.2H83.8c-.3 0-.6.2-.6.6 0 .1 0 .3.1.4l16.4 16.2c1.1 1.2 2.7 2 4.4 2h17.8c1.7 0 3-1.3 3.1-2.9v-41.3c0-.5.4-.9.9-.9h2c20 0 39.4-12.1 39.4-36.3 0-21.6-15-36.1-39.4-36.1" style="fill: url(&quot;#a&quot;);"/></svg>