<svg width="169" height="36" viewBox="0 0 169 36" fill="none" xmlns="http://www.w3.org/2000/svg" class="h-[32px] object-contain"><g clip-path="url(#clip0_1864_55185)"><path d="M26.0203 9.08592L25.869 13.9497L13.1837 27.7386C18.4826 27.7386 21.8426 27.6868 23.7801 27.5792C23.2186 30.196 22.7619 32.3354 22.3019 35.5427C19.7537 35.3275 15.781 35.2737 11.8064 35.2737C7.37572 35.2737 3.50328 35.3268 0.395508 35.5427L0.499078 30.6238L13.1837 16.89C7.63061 16.89 5.59217 16.9424 3.30085 16.9962C3.80861 14.5375 4.16573 11.813 4.52217 9.08592C8.5466 9.24598 10.1257 9.29844 15.3735 9.29844C20.2137 9.29911 22.963 9.24598 26.0203 9.08592ZM40.4388 7.64132C32.1834 7.64132 25.869 15.017 25.869 23.8386C25.869 30.4651 29.689 35.5427 37.1266 35.5427C45.431 35.5427 51.697 28.1657 51.697 19.2923C51.6976 12.7216 47.9772 7.64132 40.4388 7.64132ZM37.9417 28.4535C36.107 28.4535 35.0383 26.7944 35.0383 23.5346C35.0383 18.6709 37.025 14.7702 39.4717 14.7702C41.2532 14.7702 42.3232 16.3748 42.3232 19.6864C42.3225 24.4963 40.3883 28.4535 37.9417 28.4535ZM157.121 7.27546C148.76 7.27546 142.361 14.7486 142.361 23.6812C142.361 30.3978 146.232 35.5427 153.767 35.5427C162.179 35.5427 168.528 28.0688 168.528 19.0804C168.529 12.421 164.762 7.27546 157.121 7.27546ZM154.434 28.4253C152.599 28.4253 151.531 26.7661 151.531 23.5064C151.531 18.6426 153.518 14.7426 155.964 14.7426C157.745 14.7426 158.817 16.3459 158.817 19.6581C158.816 24.4701 156.88 28.4253 154.434 28.4253ZM94.54 17.2632C95.2031 12.7216 94.8467 8.60506 89.804 8.60506C86.1354 8.60506 82.162 11.7054 79.3603 16.89C79.9723 12.6127 79.6145 8.60506 74.6223 8.60506C70.8527 8.60506 66.7772 11.8648 63.9741 17.2632C64.6876 13.7358 64.5356 9.72617 64.3312 8.87138C61.4278 9.35291 58.8816 9.61924 55.3145 9.72617C55.4168 12.1856 55.2634 15.3902 54.8047 18.4395L53.6332 26.4554C53.1745 29.6103 52.6647 33.2446 52.155 35.5434H61.631C61.6827 34.1519 62.0399 31.9614 62.2941 30.0373L63.1092 24.5333C63.771 20.9501 66.6232 16.7299 68.8136 16.7299C70.0874 16.7299 70.0376 17.9586 69.6805 20.2567L68.7632 26.4547C68.3032 29.6096 67.7954 33.244 67.2849 35.5427H76.8625C76.9143 34.1512 77.2196 31.9608 77.4738 30.0367L78.2882 24.5326C78.9514 20.9494 81.8056 16.7292 83.9947 16.7292C85.2698 16.7292 85.2194 17.9035 85.0136 19.5082L82.7256 35.542H91.4665L94.54 17.2632ZM140.307 27.1515L139.288 33.4592C137.708 34.314 134.753 35.544 131.34 35.544C125.532 35.544 124.361 32.4436 125.277 25.8696L126.755 15.2867H123.897L124.704 8.43625L127.824 8.2856L128.997 3.31491L137.809 0L136.689 8.28493H142.752C142.549 9.13972 141.833 13.8448 141.633 15.286H135.72L134.395 25.0673C134.039 27.5792 134.244 28.4885 135.973 28.4885C137.25 28.4871 139.133 27.7386 140.307 27.1515ZM106.879 30.5585C110.086 30.1611 112.294 27.0694 112.824 23.9845L112.914 23.158C111.536 22.85 109.544 22.6153 107.612 22.8513C105.773 23.0753 104.242 23.8399 103.419 24.9469C102.798 25.7419 102.486 26.6928 102.625 27.8267C102.834 29.5249 104.712 30.8228 106.879 30.5585ZM104.149 35.4438C99.6223 36 96.641 34.203 95.7458 30.116C95.1843 27.5442 95.9638 24.6147 97.327 22.8668C99.1529 20.5808 102.128 19.1134 105.759 18.6702C108.681 18.3077 111.143 18.4866 113.446 18.9224L113.542 18.5276C113.608 17.8961 113.674 17.2659 113.582 16.5114C113.343 14.5738 111.815 13.4197 108.042 13.8838C105.497 14.1965 103.075 15.1158 101.195 16.1623L99.3654 10.6348C101.914 9.17133 105.127 8.05761 108.804 7.60634C115.827 6.74483 120.762 8.98436 121.394 14.1333C121.562 15.5026 121.582 16.9539 121.409 18.2707C120.507 24.6369 119.929 29.4273 119.676 32.638C119.635 33.135 119.638 33.9891 119.683 35.1997L110.967 35.1916C111.153 34.6899 111.319 34.0093 111.467 33.1559C111.565 32.5943 111.635 31.8861 111.679 31.028C109.837 33.5553 107.305 35.0564 104.149 35.4438Z" fill="#E23744"/></g><defs><clipPath id="clip0_1864_55185"><rect width="168.224" height="36" fill="white" transform="translate(0.349609)"/></clipPath></defs></svg>